HIERARCHY
ROOT root
{
	OFFSET	0	13.1	24.9
	CHANNELS 6  Xposition Yposition Zposition Xrotation Yrotation Zrotation
	JOINT spine_1
	{
		OFFSET	0	9.99999	0
		CHANNELS 3  Xrotation Yrotation Zrotation
		JOINT spine_2
		{
			OFFSET	0	112	-10
			CHANNELS 3  Xrotation Yrotation Zrotation
			JOINT spine_3
			{
				OFFSET	0	206.5	19.3
				CHANNELS 3  Xrotation Yrotation Zrotation
				JOINT spine_4
				{
					OFFSET	0	110.4	14.6
					CHANNELS 3  Xrotation Yrotation Zrotation
					JOINT neck_1
					{
						OFFSET	0	71.8	-50.3
						CHANNELS 3  Xrotation Yrotation Zrotation
						JOINT neck_2
						{
							OFFSET	0	86.2	-25.8
							CHANNELS 3  Xrotation Yrotation Zrotation
							JOINT head_ee
							{
								OFFSET	0	179.8	-8.7
								CHANNELS 3  Xrotation Yrotation Zrotation
								End Site
								{
									OFFSET	1	0	0
								}
							}
						}
					}
					JOINT left_clavicle
					{
						OFFSET	-43.2	22.4	-70.8
						CHANNELS 3  Xrotation Yrotation Zrotation
						JOINT left_shoulder
						{
							OFFSET	-93.9	-5.79999	48.7
							CHANNELS 3  Xrotation Yrotation Zrotation
							JOINT left_elbow
							{
								OFFSET	-291.4	-30.8	15.2
								CHANNELS 3  Xrotation Yrotation Zrotation
								JOINT left_lowarm_twist
								{
									OFFSET	-110.7	-3.89999	13.6
									CHANNELS 3  Xrotation Yrotation Zrotation
									JOINT left_hand
									{
										OFFSET	-110.7	-3.89999	13.6
										CHANNELS 3  Xrotation Yrotation Zrotation
										JOINT left_ee
										{
											OFFSET	-80.8	-5.10001	12.1
											CHANNELS 3  Xrotation Yrotation Zrotation
											End Site
											{
												OFFSET	1	0	0
											}
										}
									}
								}
							}
						}
					}
					JOINT right_clavicle
					{
						OFFSET	43.2	22.4	-70.8
						CHANNELS 3  Xrotation Yrotation Zrotation
						JOINT right_shoulder
						{
							OFFSET	93.9	-5.79999	48.7
							CHANNELS 3  Xrotation Yrotation Zrotation
							JOINT right_elbow
							{
								OFFSET	291.4	-30.8	15.2
								CHANNELS 3  Xrotation Yrotation Zrotation
								JOINT right_lowarm_twist
								{
									OFFSET	110.7	-3.89999	13.6
									CHANNELS 3  Xrotation Yrotation Zrotation
									JOINT right_hand
									{
										OFFSET	110.7	-3.89999	13.6
										CHANNELS 3  Xrotation Yrotation Zrotation
										JOINT right_ee
										{
											OFFSET	80.8	-5.10001	12.1
											CHANNELS 3  Xrotation Yrotation Zrotation
											End Site
											{
												OFFSET	1	0	0
											}
										}
									}
								}
							}
						}
					}
				}
			}
		}
	}
	JOINT left_hip
	{
		OFFSET	-82.8	-127.5	0.300001
		CHANNELS 3  Xrotation Yrotation Zrotation
		JOINT left_knee
		{
			OFFSET	-28.2	-396.7	2.2
			CHANNELS 3  Xrotation Yrotation Zrotation
			JOINT left_ankle
			{
				OFFSET	-11.7	-411.3	35.4
				CHANNELS 3  Xrotation Yrotation Zrotation
				JOINT left_toes
				{
					OFFSET	0	-60	-88.6
					CHANNELS 3  Xrotation Yrotation Zrotation
					JOINT left_foot_ee
					{
						OFFSET	-22.5	-16.5	-42.2
						CHANNELS 3  Xrotation Yrotation Zrotation
						End Site
						{
							OFFSET	1	0	0
						}
					}
				}
			}
		}
	}
	JOINT right_hip
	{
		OFFSET	82.8	-127.5	0.300001
		CHANNELS 3  Xrotation Yrotation Zrotation
		JOINT right_knee
		{
			OFFSET	28.2	-396.7	2.2
			CHANNELS 3  Xrotation Yrotation Zrotation
			JOINT right_ankle
			{
				OFFSET	11.7	-411.3	35.4
				CHANNELS 3  Xrotation Yrotation Zrotation
				JOINT right_toes
				{
					OFFSET	0	-60	-88.6
					CHANNELS 3  Xrotation Yrotation Zrotation
					JOINT right_foot_ee
					{
						OFFSET	22.5	-16.5	-42.2
						CHANNELS 3  Xrotation Yrotation Zrotation
						End Site
						{
							OFFSET	1	0	0
						}
					}
				}
			}
		}
	}
}
MOTION
Frames: 11
Frame Time: 0.02
2490.44 745.884 -566.501 139.173 -73.0662 142.402 -2.47171 0.15056 -0.725237 -2.47144 0.196403 -0.714188 -2.47373 0.370177 -0.641569 -2.47421 0.26421 -0.691977 -7.09984 -0.959817 -1.59383 -7.09295 -0.634407 -1.78749 -0.0 0.0 -0.0 8.6743 1.69703 16.8912 -30.5147 -21.1079 57.5004 0.203827 -5.76575 0.0102644 84.859 -4.40965 -8.85961 -1.16139 8.02452 -4.18529 -0.0 0.0 -0.0 9.55165 6.28109 -18.8782 -10.8735 29.8863 -43.6993 1.10388 28.6703 -0.282106 71.2517 2.87127 8.04183 0.0135724 -2.04206 -0.948322 0.0 0.0 0.0 26.1529 2.12054 -4.57157 -56.7026 -1.85465 8.15225 32.83 6.8285 -4.1836 28.5169 -0.0 -0.0 -0.0 0.0 -0.0 -4.75729 -12.7677 -2.85691 -26.0225 -0.175749 -3.95534 34.8357 7.17972 4.4928 37.694 -0.0 -0.0 0.0 0.0 0.0 
2512.27 749.937 -554.098 140.652 -73.9563 143.627 -2.47729 0.165767 -0.797457 -2.47696 0.216173 -0.785294 -2.47973 0.40732 -0.705346 -2.48031 0.290816 -0.760819 -7.03975 -1.2335 -1.4793 -7.03404 -1.22359 -1.72849 -0.0 0.0 -0.0 8.5371 1.65704 16.619 -31.5002 -20.7015 56.785 0.204165 -5.77526 0.0102984 84.9474 -4.42022 -8.8637 -1.13757 8.09546 -3.99892 -0.0 0.0 -0.0 9.5994 6.68824 -18.982 -8.72223 30.4544 -43.0026 1.18923 30.5017 -0.324253 71.0461 2.84964 8.02674 0.196099 -0.611603 -1.5651 0.0 0.0 0.0 28.8216 2.36462 -6.40522 -55.1996 -1.70453 7.97576 31.4948 7.21692 -4.0467 28.148 -0.0 -0.0 -0.0 0.0 -0.0 -5.46995 -14.0311 -2.44162 -22.2869 -0.261467 -3.38858 35.2371 6.91674 4.52727 37.6689 -0.0 -0.0 0.0 0.0 0.0 
2522.07 743.115 -551.081 142.308 -74.5384 144.812 -2.3007 0.177533 -0.83862 -2.30033 0.230535 -0.825625 -2.30346 0.429116 -0.742071 -2.30409 0.306538 -0.800524 -6.85355 -1.38463 -1.29852 -6.84928 -1.62894 -1.57681 -0.0 0.0 -0.0 8.42678 1.8134 16.3943 -32.2917 -20.372 56.9677 0.217744 -6.15649 0.0117097 85.0193 -4.42883 -8.86702 -1.13621 8.32394 -3.88778 -0.0 0.0 -0.0 9.63457 6.9701 -19.058 -7.04958 30.9633 -42.1318 1.25284 31.8233 -0.35717 70.8445 2.82847 8.01187 0.363573 0.621578 -2.17003 0.0 0.0 0.0 31.5721 2.55445 -7.5605 -52.5889 -1.45504 7.66018 30.5966 7.6973 -3.95309 27.8739 -0.0 -0.0 -0.0 0.0 -0.0 -6.48268 -14.9107 -2.08016 -19.4875 -0.301384 -2.96093 35.7776 6.64643 4.57465 37.7174 -0.0 -0.0 0.0 0.0 0.0 
2539.69 735.394 -548.451 144.042 -73.6479 146.55 -2.20357 0.205731 -0.782645 -2.20326 0.255114 -0.767969 -2.20655 0.43739 -0.680849 -2.20705 0.324377 -0.741378 -6.65547 -1.24466 -0.353111 -6.65512 -2.05093 -0.599453 -0.0 0.0 -0.0 8.3335 2.01174 16.2028 -33.0891 -19.9995 57.2356 0.227508 -6.43031 0.0127801 85.3166 -4.46448 -8.88063 -1.16987 9.01194 -3.79695 -0.0 0.0 -0.0 9.64709 7.11918 -19.0851 -6.03104 31.2947 -41.1902 1.29877 32.7546 -0.381705 70.4068 2.78269 7.97932 0.663194 2.46567 -3.41294 0.0 0.0 0.0 32.9231 2.65881 -6.17242 -50.5092 -1.2668 7.40097 30.1114 8.91669 -3.90457 27.9495 -0.0 -0.0 -0.0 0.0 -0.0 -7.32452 -15.6143 -3.47269 -17.5216 -0.316908 -2.65971 36.1173 6.77951 4.60929 37.7157 -0.0 -0.0 0.0 0.0 0.0 
2557.41 735.408 -540.614 144.676 -73.1161 147.258 -2.19747 0.149481 -0.856329 -2.19709 0.203667 -0.845083 -2.19986 0.406558 -0.768351 -2.20057 0.280114 -0.822912 -6.51472 -1.17955 0.276129 -6.51398 -2.38702 0.0472838 -0.0 0.0 -0.0 8.28544 2.17836 16.1023 -33.7264 -19.7239 57.4749 0.233417 -6.59585 0.0134502 85.4446 -4.47984 -8.88643 -1.19913 9.52422 -3.7552 -0.0 0.0 -0.0 9.67358 7.18089 -19.1421 -5.28334 31.4903 -40.6612 1.3314 33.4046 -0.399514 70.1005 2.7508 7.95634 0.879053 3.84888 -4.29079 0.0 0.0 0.0 34.4089 2.04047 -6.23335 -48.3763 -1.08372 7.12833 29.846 9.74298 -3.87914 28.0094 -0.0 -0.0 -0.0 0.0 -0.0 -8.17665 -15.9694 -3.24194 -16.1573 -0.321601 -2.45044 36.3131 6.79898 4.62817 37.715 -0.0 -0.0 0.0 0.0 0.0 
2566.4 738.388 -534.329 145.455 -72.4279 148.485 -2.44363 0.0921021 -0.94559 -2.44315 0.152083 -0.937814 -2.44526 0.383267 -0.869333 -2.44623 0.241169 -0.918948 -6.42883 -1.019 1.17551 -6.42354 -2.74639 0.9842 -0.0 0.0 -0.0 8.38736 2.56682 16.2904 -33.9006 -19.6764 58.2456 0.237958 -6.72302 0.0139769 85.3053 -4.46312 -8.88011 -1.21037 10.2357 -3.50711 -0.0 0.0 -0.0 9.8939 7.14787 -19.6165 -4.93405 31.5354 -40.8218 1.35685 33.9051 -0.41362 69.8751 2.72741 7.93932 1.23179 6.0381 -5.75874 0.0 0.0 0.0 35.0659 1.47506 -6.22017 -42.5863 -0.639453 6.35649 29.4656 10.1556 -3.83978 27.8782 -0.0 -0.0 -0.0 0.0 -0.0 -9.68411 -16.1407 -2.78906 -15.3159 -0.322012 -2.32136 36.4499 6.80711 4.6412 37.9107 -0.0 -0.0 0.0 0.0 0.0 
2589.63 735.472 -528.986 149.208 -71.9778 152.227 -2.60611 0.0532609 -0.969775 -2.60559 0.114859 -0.964422 -2.60707 0.356491 -0.903452 -2.60815 0.20934 -0.94841 -6.3658 -0.884638 1.84828 -6.354 -2.99051 1.68864 -0.0 0.0 -0.0 8.49676 2.86786 16.4947 -33.9952 -19.7052 58.8914 0.243131 -6.86777 0.014589 85.2147 -4.45225 -8.87598 -1.21427 10.749 -3.30086 -0.0 0.0 -0.0 10.0729 7.10837 -20.0027 -4.62289 31.5639 -40.9145 1.37776 34.3118 -0.425346 69.7137 2.71071 7.92708 1.49222 7.64403 -6.84573 0.0 0.0 0.0 35.4872 0.887147 -6.01396 -38.4726 -0.372466 5.78327 29.2246 10.4421 -3.8149 27.8236 -0.0 -0.0 -0.0 0.0 -0.0 -10.7349 -16.2711 -2.53219 -14.8131 -0.321352 -2.24421 36.5435 6.84675 4.6507 38.0477 -0.0 -0.0 0.0 0.0 0.0 
2606.8 747.513 -520.5 153.109 -70.5078 156.467 -2.71503 -0.187135 -1.01477 -2.71446 -0.122187 -1.02462 -2.71153 0.1444 -1.02173 -2.71299 -0.0187664 -1.03171 -6.42815 -0.646305 1.17254 -6.42334 -2.05403 1.0534 -0.0 0.0 -0.0 8.57818 2.93513 16.6524 -33.9145 -19.5831 59.5122 0.265755 -7.49986 0.0174182 85.3557 -4.46916 -8.8824 -1.27158 12.0465 -3.07966 -0.0 0.0 -0.0 10.3695 6.71688 -20.6415 -4.48877 31.4898 -41.6996 1.39665 34.6758 -0.436042 69.0064 2.63792 7.87287 1.69299 8.76933 -7.72932 0.0 0.0 0.0 35.3099 0.400178 -5.52524 -31.1625 -0.00221522 4.72384 28.5579 11.3274 -3.74633 27.6189 -0.0 -0.0 -0.0 0.0 -0.0 -11.38 -16.4057 -2.63067 -14.4708 -0.320516 -2.19171 36.273 6.90777 4.62627 37.9777 -0.0 -0.0 0.0 0.0 0.0 
2618.2 742.792 -518.102 155.277 -70.3135 158.596 -2.56164 -0.347928 -0.909136 -2.56123 -0.289374 -0.929431 -2.55585 -0.0442652 -0.972426 -2.55711 -0.197279 -0.953235 -6.42077 -0.616409 0.354927 -6.42014 -1.40104 0.237413 -0.0 0.0 -0.0 8.80655 2.99677 17.1004 -33.6559 -19.6598 60.2219 0.291298 -8.21132 0.0209095 84.9797 -4.42409 -8.86519 -1.28296 12.9637 -2.73648 -0.0 0.0 -0.0 10.7359 5.12552 -21.4054 -4.09409 31.5316 -42.2878 1.44276 35.5513 -0.462566 68.8291 2.61978 7.85915 1.87427 10.1151 -8.38058 0.0 0.0 0.0 34.6457 -0.643698 -6.72924 -24.8994 0.205405 3.78553 28.3298 11.9215 -3.72461 27.704 -0.0 -0.0 -0.0 0.0 -0.0 -11.8158 -16.5084 -2.67419 -13.664 -0.317304 -2.06796 35.0802 6.79474 4.50994 37.621 -0.0 -0.0 0.0 0.0 0.0 
2638.75 739.199 -518.469 157.738 -69.0305 161.388 -2.46238 -0.441476 -0.861319 -2.46205 -0.385775 -0.887664 -2.45541 -0.149797 -0.956201 -2.45657 -0.298924 -0.920548 -6.45012 -0.542332 -0.165761 -6.45003 -0.883432 -0.271797 -0.0 0.0 -0.0 8.96677 2.77871 17.4279 -33.0697 -19.7968 60.3605 0.312941 -8.81214 0.0241128 84.7395 -4.39536 -8.85405 -1.29029 13.6284 -2.48168 -0.0 0.0 -0.0 10.9942 4.02117 -21.9288 -4.05088 31.4089 -42.9134 1.47577 36.1664 -0.4819 68.7079 2.60741 7.84973 2.00255 11.0557 -8.8421 0.0 0.0 0.0 34.3647 -1.2557 -7.08677 -20.3513 0.291297 3.09309 28.2848 12.3251 -3.72226 27.8257 -0.0 -0.0 -0.0 0.0 -0.0 -12.3037 -16.5458 -2.7387 -13.1136 -0.314112 -1.98357 34.0848 6.82746 4.41269 37.3499 -0.0 -0.0 0.0 0.0 0.0 
2663.55 737.95 -513.732 161.124 -68.8602 164.809 -2.37551 -0.500153 -0.83085 -2.37524 -0.446272 -0.86099 -2.36791 -0.216513 -0.94529 -2.36897 -0.363081 -0.899239 -6.20385 -0.407523 -0.0696102 -6.2038 -0.702779 -0.147704 -0.0 0.0 -0.0 8.99198 2.5889 17.487 -32.5278 -20.0952 60.6642 0.334063 -9.39664 0.0274552 84.1076 -4.31998 -8.82415 -1.30688 14.8694 -2.0234 -0.0 0.0 -0.0 11.1359 3.31988 -22.2064 -4.89385 30.6389 -43.2174 1.47877 36.222 -0.483676 69.1406 2.65168 7.88323 2.122 11.7951 -9.32891 0.0 0.0 0.0 32.5778 -1.35696 -7.87483 -12.2072 0.307091 1.84468 28.2612 12.5859 -3.72144 27.8282 -0.0 -0.0 -0.0 0.0 -0.0 -13.1161 -16.4825 -1.84826 -13.5239 -0.316569 -2.04648 33.7146 6.39592 4.36861 37.2986 -0.0 -0.0 0.0 0.0 0.0 
